<svg width="1200" height="800" viewBox="0 0 1200 800" fill="none" xmlns="http://www.w3.org/2000/svg">
  <defs>
    <linearGradient id="bg" x1="0" y1="0" x2="1200" y2="800" gradientUnits="userSpaceOnUse">
      <stop stop-color="#EFF4FB"/>
      <stop offset="1" stop-color="#E9F1FB"/>
    </linearGradient>
    <linearGradient id="panel" x1="560" y1="120" x2="1120" y2="520" gradientUnits="userSpaceOnUse">
      <stop stop-color="#6FC2CA"/>
      <stop offset="1" stop-color="#4AA4B3"/>
    </linearGradient>
  </defs>

  <rect width="1200" height="800" fill="url(#bg)"/>

  <rect x="0" y="0" width="1200" height="80" fill="#F8FBFF"/>
  <rect x="0" y="79" width="1200" height="1" fill="#C8D8EC"/>
  <rect x="24" y="24" width="24" height="24" rx="8" fill="#D5E6FB"/>
  <text x="60" y="42" fill="#1D6DE0" font-size="34" font-family="Arial, sans-serif" font-weight="700">MediSecure</text>

  <text x="24" y="168" fill="#0F1B3D" font-size="72" font-family="Arial, sans-serif" font-weight="700">The</text>
  <text x="170" y="168" fill="#2A78E5" font-size="72" font-family="Arial, sans-serif" font-style="italic">Operating</text>
  <text x="24" y="248" fill="#2A78E5" font-size="72" font-family="Arial, sans-serif" font-style="italic">System</text>
  <text x="290" y="248" fill="#0F1B3D" font-size="72" font-family="Arial, sans-serif" font-weight="700">for</text>
  <text x="24" y="328" fill="#0F1B3D" font-size="76" font-family="Arial, sans-serif" font-weight="700">Modern</text>
  <text x="24" y="408" fill="#0F1B3D" font-size="76" font-family="Arial, sans-serif" font-weight="700">Healthcare</text>

  <text x="24" y="472" fill="#475D7E" font-size="30" font-family="Arial, sans-serif">Refined healthcare infrastructure for patients and providers.</text>

  <rect x="24" y="505" width="170" height="58" rx="29" fill="#2A78E5"/>
  <text x="66" y="544" fill="white" font-size="30" font-family="Arial, sans-serif" font-weight="700">Get Started</text>
  <rect x="205" y="505" width="170" height="58" rx="29" fill="#F8FBFF" stroke="#C8D8EC" stroke-width="2"/>
  <text x="252" y="544" fill="#0F1B3D" font-size="30" font-family="Arial, sans-serif" font-weight="700">Watch Demo</text>

  <rect x="560" y="120" width="600" height="380" rx="22" fill="url(#panel)"/>
  <rect x="720" y="145" width="240" height="10" rx="5" fill="#C2EDF2"/>

  <circle cx="640" cy="245" r="64" fill="#89CBD4" stroke="#B4E4EA" stroke-width="2"/>
  <circle cx="800" cy="245" r="64" fill="#89CBD4" stroke="#B4E4EA" stroke-width="2"/>
  <circle cx="960" cy="245" r="64" fill="#74BEC8" stroke="#B4E4EA" stroke-width="2"/>
  <circle cx="1080" cy="245" r="64" fill="#89CBD4" stroke="#B4E4EA" stroke-width="2"/>

  <text x="625" y="255" fill="#E8F9FB" font-size="28" font-family="Arial, sans-serif" font-weight="700">03%</text>
  <text x="785" y="255" fill="#E8F9FB" font-size="28" font-family="Arial, sans-serif" font-weight="700">20%</text>
  <text x="945" y="255" fill="#E8F9FB" font-size="28" font-family="Arial, sans-serif" font-weight="700">33%</text>
  <text x="1065" y="255" fill="#E8F9FB" font-size="28" font-family="Arial, sans-serif" font-weight="700">20%</text>

  <rect x="580" y="360" width="98" height="120" rx="8" fill="#A5D2D9"/>
  <rect x="690" y="382" width="98" height="98" rx="8" fill="#B4DBE0"/>
  <rect x="800" y="318" width="98" height="162" rx="8" fill="#9BCAD2"/>
  <rect x="910" y="372" width="98" height="108" rx="8" fill="#B4DBE0"/>
  <rect x="1020" y="382" width="98" height="98" rx="8" fill="#B4DBE0"/>

  <rect x="1045" y="100" width="145" height="56" rx="14" fill="#F4FBF9" stroke="#C9EADB"/>
  <circle cx="1065" cy="128" r="9" fill="#2EC47E"/>
  <text x="1082" y="133" fill="#3D5A6B" font-size="28" font-family="Arial, sans-serif" font-weight="700">Live Vitals</text>

  <rect x="545" y="470" width="185" height="58" rx="14" fill="#F8FBFF" stroke="#D2DDEA"/>
  <text x="560" y="493" fill="#6B7F9A" font-size="18" font-family="Arial, sans-serif" font-weight="700">SECURITY STATUS</text>
  <text x="560" y="515" fill="#0F1B3D" font-size="30" font-family="Arial, sans-serif" font-weight="700">AES-256 Encrypted</text>
</svg>
